<svg height="512pt" viewBox="0 -11 512 512" width="512pt" xmlns="http://www.w3.org/2000/svg"><g fill-rule="evenodd"><path d="m188.914062 241.617188h240.007813c6.375 0 11.589844 5.210937 11.589844 11.589843v158.078125c0 6.375-5.214844 11.589844-11.589844 11.589844h-356.15625c-6.375 0-11.589844-5.214844-11.589844-11.589844v-158.078125c0-6.375 5.214844-11.589843 11.589844-11.589843zm-141.738281 238.304687h417.648438c20.375 0 37.089843-16.691406 37.089843-37.097656v-219.941407c0-20.375-16.6875-37.09375-37.089843-37.09375h-417.648438c-20.402343 0-37.089843 16.691407-37.089843 37.09375v219.941407c0 20.40625 16.71875 37.097656 37.089843 37.097656zm0 0" fill="#00ccf2"/><path d="m380.550781 363.277344h59.960938v-110.070313c0-6.375-5.214844-11.589843-11.589844-11.589843h-48.371094v60.816406h-63.871093v60.84375zm0 0" fill="#f9f9f9"/><path d="m316.683594 241.617188h63.867187v60.816406h-63.867187zm0 0" fill="#f9f9f9"/><path d="m252.8125 241.617188h63.871094v60.816406h-63.871094zm0 0" fill="#f9f9f9"/><path d="m188.914062 241.617188h63.898438v60.816406h-63.898438zm0 0" fill="#f9f9f9"/><path d="m125.046875 241.617188h63.867187v60.816406h-63.867187zm0 0" fill="#ff6977"/><path d="m61.175781 302.433594h63.871094v-60.816406h-52.28125c-6.375 0-11.589844 5.214843-11.589844 11.589843zm0 0" fill="#f9f9f9"/><path d="m61.175781 302.433594h63.871094v60.84375h-63.871094zm0 0" fill="#ff6977"/><path d="m125.046875 302.433594h63.867187v60.84375h-63.867187zm0 0" fill="#ff6977"/><path d="m125.046875 422.875v-59.597656h-63.871094v48.007812c0 6.375 5.214844 11.589844 11.589844 11.589844zm0 0" fill="#f9f9f9"/><path d="m125.046875 422.875h191.636719v-59.597656h-191.636719zm0 0" fill="#f9f9f9"/><path d="m188.914062 302.433594h63.898438v60.84375h-63.898438zm0 0" fill="#ff6977"/><path d="m252.8125 302.433594h63.871094v60.84375h-63.871094zm0 0" fill="#f9f9f9"/><path d="m316.683594 363.277344h63.867187v59.597656h-63.867187zm0 0" fill="#f9f9f9"/><path d="m428.921875 422.875c6.375 0 11.589844-5.214844 11.589844-11.589844v-48.007812h-59.957031v59.597656zm0 0" fill="#f9f9f9"/><path d="m92.117188 185.789062h72.117187v-41.574218c0-2.46875-2.011719-4.480469-4.476563-4.480469h-63.132812c-2.464844 0-4.507812 2.011719-4.507812 4.480469zm0 0" fill="#b3b0b5"/></g><path d="m464.824219 175.703125h-116.09375c-5.570313 0-10.085938 4.515625-10.085938 10.085937 0 5.570313 4.515625 10.082032 10.085938 10.082032h116.09375c14.890625 0 27.007812 12.117187 27.007812 27.011718v219.941407c0 14.894531-12.117187 27.011719-27.007812 27.011719h-417.648438c-14.890625 0-27.003906-12.117188-27.003906-27.011719v-219.941407c0-14.894531 12.113281-27.011718 27.003906-27.011718h42.953125c.644532.132812 1.308594.199218 1.988282.199218.683593 0 1.347656-.070312 1.992187-.199218h68.136719c.644531.132812 1.308594.199218 1.988281.199218s1.34375-.070312 1.988281-.199218h92.542969c5.570313 0 10.082031-4.511719 10.082031-10.082032 0-5.570312-4.511718-10.085937-10.082031-10.085937h-84.445313v-31.488281c0-8.03125-6.53125-14.5625-14.5625-14.5625h-21.480468v-16.722656c0-16.601563 13.5-30.101563 30.09375-30.101563h191.695312c23.03125 0 41.765625-18.417969 41.765625-41.058594s-19.125-41.769531-41.765625-41.769531h-191.695312c-5.570313 0-10.085938 4.515625-10.085938 10.085938 0 5.570312 4.515625 10.085937 10.085938 10.085937h191.695312c11.703125 0 21.59375 9.890625 21.59375 21.597656 0 11.519531-9.6875 20.890625-21.59375 20.890625h-191.695312c-27.71875 0-50.265625 22.550782-50.265625 50.269532v16.722656h-21.484375c-8.042969 0-14.589844 6.535156-14.589844 14.5625v31.488281h-34.855469c-26.011719 0-47.175781 21.164063-47.175781 47.179687v219.941407c0 26.015625 21.164062 47.183593 47.175781 47.183593h417.648438c26.015625 0 47.175781-21.167968 47.175781-47.183593v-219.941407c0-26.015624-21.164062-47.179687-47.175781-47.179687zm-362.621094-25.882813h51.945313v25.882813h-51.945313zm0 0"/><path d="m72.765625 231.53125c-11.953125 0-21.675781 9.726562-21.675781 21.675781v158.078125c0 11.953125 9.722656 21.675782 21.675781 21.675782h356.15625c11.949219 0 21.675781-9.722657 21.675781-21.675782v-158.078125c0-11.953125-9.726562-21.675781-21.675781-21.675781zm297.703125 60.816406h-43.703125v-40.648437h43.703125zm-63.871094 0h-43.699218v-40.648437h43.699218zm0 120.441406h-171.46875v-39.425781h171.46875zm20.167969-39.425781h43.703125v39.425781h-43.703125zm-255.503906-60.84375h43.699219v40.671875h-43.699219zm63.867187 0h43.699219v40.671875h-43.699219zm0-20.171875v-40.648437h43.699219v40.648437zm63.871094 60.84375v-40.671875h43.726562v40.671875zm63.898438 0v-40.671875h43.699218v40.671875zm-20.171876-60.84375h-43.726562v-40.648437h43.726562zm-169.960937-40.648437h42.195313v40.648437h-43.699219v-39.140625c0-.800781.703125-1.507812 1.503906-1.507812zm-1.503906 159.585937v-37.921875h43.699219v39.425781h-42.195313c-.800781 0-1.503906-.703124-1.503906-1.503906zm357.660156 1.503906h-38.285156v-39.425781h39.789062v37.921875c0 .800782-.703125 1.503906-1.503906 1.503906zm1.503906-159.582031v99.984375h-103.660156v-40.671875h53.785156c5.570313 0 10.085938-4.515625 10.085938-10.085937v-50.734375h38.285156c.800781 0 1.503906.707031 1.503906 1.507812zm0 0"/><path d="m303.761719 195.871094c5.566406 0 10.082031-4.511719 10.082031-10.082032 0-5.570312-4.515625-10.085937-10.082031-10.085937h-.199219c-5.570312 0-10.082031 4.515625-10.082031 10.085937 0 5.570313 4.511719 10.082032 10.082031 10.082032zm0 0"/></svg>